PathFileType	4	(X/Y/Z)	c:/Users/goper/Files/vsCode/490R/osim_files/C15/C15_SSWS_03.trc
DataRate	CameraRate	NumFrames	NumMarkers	Units                	OrigDataRate	OrigDataStartFrame	OrigNumFrames
250.00	250.00	5	36	mm	250.0	1567	3133
                Frame#	Time	LPSIS			LASIS			LTH1			LTH2			LTH3			LTH4			LLFE			LMFE			LSH1			LSH2			LSH3			LSH4			LLMAL			LMMAL			LCAL			LMTP5			LTOE			LMTP1			RPSIS			RASIS			RTH1			RTH2			RTH3			RTH4			RLFE			RMFE			RSH1			RSH2			RSH3			RSH4			RLMAL			RMMAL			RCAL			RMTP1			RTOE			RMTP5		
		X1	Y1	Z1	X2	Y2	Z2	X3	Y3	Z3	X4	Y4	Z4	X5	Y5	Z5	X6	Y6	Z6	X7	Y7	Z7	X8	Y8	Z8	X9	Y9	Z9	X10	Y10	Z10	X11	Y11	Z11	X12	Y12	Z12	X13	Y13	Z13	X14	Y14	Z14	X15	Y15	Z15	X16	Y16	Z16	X17	Y17	Z17	X18	Y18	Z18	X19	Y19	Z19	X20	Y20	Z20	X21	Y21	Z21	X22	Y22	Z22	X23	Y23	Z23	X24	Y24	Z24	X25	Y25	Z25	X26	Y26	Z26	X27	Y27	Z27	X28	Y28	Z28	X29	Y29	Z29	X30	Y30	Z30	X31	Y31	Z31	X32	Y32	Z32	X33	Y33	Z33	X34	Y34	Z34	X35	Y35	Z35	X36	Y36	Z36

1567	6.26400	814.71710	997.25153	296.86078	642.89221	981.63641	343.53281	621.99011	593.36603	419.24127	606.99786	550.23663	404.00455	575.71338	616.28912	420.01324	561.45020	574.79437	410.71371	562.16052	488.06619	382.38983	548.07928	474.93521	260.64514	583.04150	367.67773	389.11163	568.54346	326.51352	395.55890	524.43970	385.66660	394.44550	517.10498	342.54343	400.64081	441.30865	88.09128	342.84299	427.38562	125.40653	257.16623	485.25278	45.19719	292.86591	308.70493	80.58210	365.23145	267.55606	135.68375	311.70917	290.51416	96.79700	251.45058	822.21100	1003.80438	176.08234	672.56421	981.51862	96.54136	773.33545	617.69678	62.52450	777.47015	572.22424	73.09127	713.93073	609.65137	74.24934	725.65900	563.98987	80.58348	785.43018	476.02698	102.92765	796.35815	467.09537	221.00835	896.96637	392.58109	95.03877	908.12793	350.37796	95.24420	837.56403	368.39624	92.87160	858.57965	330.60712	91.68177	954.86926	91.51423	171.88228	916.97473	112.66033	255.54140	1018.71594	69.42664	221.28642	818.09344	33.91729	253.99347	785.28186	50.91078	199.14282	850.34888	28.66025	134.38531
1568	6.26800	810.48407	996.71332	297.16281	638.49438	981.10583	343.48038	618.09784	592.73676	418.63831	602.71667	549.52515	403.02167	572.24261	616.25275	419.83844	557.58344	574.08240	410.32928	558.72693	487.77225	382.04224	544.09845	474.69614	260.12216	578.35034	366.63321	387.67267	564.44452	325.78369	394.44858	520.97009	385.41437	394.27969	512.99017	341.86664	399.56479	436.57562	87.79813	341.35080	423.13168	125.15088	255.55763	480.62604	44.89837	291.61484	303.89227	80.92626	363.24463	263.13116	136.06978	309.47037	286.23547	96.96237	249.39789	818.11743	1003.19684	176.39836	668.57910	980.95795	96.61336	769.99554	617.00256	62.72056	774.34509	571.75739	73.23495	710.67224	609.04950	74.24528	722.18658	563.09631	80.86211	782.48285	475.59561	102.89506	793.10425	466.53610	221.03505	894.56213	392.78491	95.18489	906.01886	350.71698	95.32649	835.33087	368.26904	92.91621	856.57166	330.56451	91.71982	954.59796	92.17196	171.87802	916.40649	113.00379	255.56076	1018.38477	70.17056	221.25995	817.97809	33.88319	253.92709	785.22058	50.90518	199.09467	850.37756	28.69889	134.36542
1569	6.27200	806.22406	996.21448	297.42087	634.25854	980.55841	343.53558	614.13550	592.11438	418.13458	598.71362	548.92456	402.28754	568.24463	615.59216	419.60727	553.66345	573.64655	410.11813	554.67542	487.24387	381.34402	540.75336	474.42523	259.90100	574.28088	365.90558	386.64157	560.36511	325.00748	393.29352	516.52777	384.36166	392.71710	509.03375	341.13596	398.58469	432.27206	87.34547	339.77701	419.14099	124.74490	254.01891	476.55447	44.65789	290.32990	299.68375	80.80405	361.33972	259.16125	135.93109	307.33795	282.38965	96.64608	247.37326	813.99860	1002.61768	176.69745	664.59161	980.33563	96.65714	767.27130	617.12000	62.69801	771.11584	571.34302	73.36573	707.39337	608.48962	74.27605	719.01166	562.51227	80.91052	779.32355	475.04593	103.07318	789.78314	465.97339	221.10411	891.98615	392.95602	95.36227	903.53406	350.62207	95.55911	832.89691	368.02148	93.02766	854.45258	330.50656	91.79532	954.13153	92.62059	172.38661	915.56238	113.13840	255.55522	1018.08997	70.92169	221.16451	817.91718	33.83208	253.87140	785.19238	50.83419	199.04900	850.37311	28.72534	134.37849
1570	6.27600	801.85779	995.64618	297.74103	629.72046	980.23822	343.84399	610.05103	591.56769	417.53610	594.55188	548.40674	401.65442	564.31207	615.09583	419.53787	549.38068	572.76678	409.49680	550.64288	486.76950	380.65283	536.19989	474.19946	258.98508	571.01221	365.69333	386.09009	556.48193	324.37146	392.19696	512.85547	383.86526	392.47284	505.15350	340.34460	397.42847	428.67938	86.84528	338.25766	415.52380	124.17147	252.47473	473.02359	44.39268	288.96774	295.91034	80.37173	359.58041	255.57365	135.39580	305.35037	278.94922	96.01286	245.51495	809.90320	1002.05811	176.98978	660.53845	979.75885	96.70216	763.59003	616.41876	63.11477	768.72723	571.58142	73.03942	704.05457	607.87683	74.34854	715.92627	562.07953	81.03122	776.27490	474.72223	103.07952	786.52075	465.47754	221.15115	889.29620	393.11227	95.49615	901.15125	350.92630	95.73738	830.52252	367.87875	93.10821	852.23376	330.48712	91.87336	953.61731	93.23624	172.33733	915.02167	113.56143	255.38567	1017.78027	71.79543	221.25577	817.82568	33.77846	253.83272	785.09155	50.77407	199.05371	850.36823	28.76293	134.42229
1571	6.28000	797.55719	995.19617	297.98413	625.58759	979.46722	343.68100	605.80823	590.98785	417.02505	590.25555	547.86761	400.93835	559.85419	614.40167	419.01468	545.16199	572.32117	409.14728	545.91394	485.96286	379.61203	532.26141	474.53943	258.06180	566.18042	364.61438	384.62152	552.48914	323.69016	391.07434	508.19037	382.65976	390.87457	500.98718	339.56299	396.52158	425.36075	86.08218	336.63605	412.21347	123.47056	250.90047	470.04623	44.21778	287.59262	292.79999	79.55853	357.88950	252.31656	134.35454	303.51392	275.87527	94.92728	243.77220	805.66937	1001.46771	177.24713	656.49243	979.20197	96.79848	760.17944	615.99280	63.35173	765.40912	571.15363	73.27274	700.63007	607.30969	74.41967	712.47412	561.44885	80.91489	773.05084	474.31290	103.13294	782.97247	464.82388	221.21007	886.70459	393.55594	95.77448	898.76404	351.28046	95.83941	828.02740	367.82886	93.17380	850.04828	330.53580	91.93391	953.25995	93.91663	172.31122	914.62335	114.18503	255.59967	1017.44543	72.65840	221.32928	817.72089	33.68690	253.76645	785.06299	50.71442	199.02887	850.38086	28.80435	134.43541
